<svg width="57" height="63" viewBox="0 0 57 63" fill="none" xmlns="http://www.w3.org/2000/svg">
<path d="M7.34896 30.4538H11.5521C11.8281 30.4538 12.099 30.4017 12.3542 30.2923C12.6094 30.1882 12.8385 30.0371 13.0365 29.8392C13.2344 29.6413 13.3854 29.4121 13.4896 29.1569C13.599 28.9017 13.651 28.6309 13.651 28.3548V24.1517C13.651 23.8757 13.599 23.6048 13.4896 23.3496C13.3854 23.0944 13.2344 22.8652 13.0365 22.6673C12.8385 22.4694 12.6094 22.3184 12.3542 22.2142C12.099 22.1048 11.8281 22.0527 11.5521 22.0527H7.34896C7.07292 22.0527 6.80208 22.1048 6.54688 22.2142C6.29167 22.3184 6.0625 22.4694 5.86458 22.6673C5.66667 22.8652 5.51563 23.0944 5.41146 23.3496C5.30208 23.6048 5.25 23.8757 5.25 24.1517V28.3548C5.25 28.6309 5.30208 28.9017 5.41146 29.1569C5.51563 29.4121 5.66667 29.6413 5.86458 29.8392C6.0625 30.0371 6.29167 30.1882 6.54688 30.2923C6.80208 30.4017 7.07292 30.4538 7.34896 30.4538ZM7.34896 24.1517H11.5521V28.3548H7.34896V24.1517Z" fill="white"/>
<path d="M19.9533 30.4538H24.1512C24.4325 30.4538 24.6981 30.4017 24.9533 30.2923C25.2137 30.1882 25.4377 30.0371 25.6356 29.8392C25.8335 29.6413 25.9845 29.4121 26.0939 29.1569C26.1981 28.9017 26.2502 28.6309 26.2502 28.3548V24.1517C26.2502 23.8757 26.1981 23.6048 26.0939 23.3496C25.9845 23.0944 25.8335 22.8652 25.6356 22.6673C25.4377 22.4694 25.2137 22.3184 24.9533 22.2142C24.6981 22.1048 24.4325 22.0527 24.1512 22.0527H19.9533C19.672 22.0527 19.4064 22.1048 19.146 22.2142C18.8908 22.3184 18.6616 22.4694 18.4637 22.6673C18.271 22.8652 18.12 23.0944 18.0106 23.3496C17.9064 23.6048 17.8491 23.8757 17.8491 24.1517V28.3548C17.8491 28.6309 17.9064 28.9017 18.0106 29.1569C18.12 29.4121 18.271 29.6413 18.4637 29.8392C18.6616 30.0371 18.8908 30.1882 19.146 30.2923C19.4064 30.4017 19.672 30.4538 19.9533 30.4538ZM19.9533 24.1517H24.1512V28.3548H19.9533V24.1517Z" fill="white"/>
<path d="M32.5521 30.4538H36.75C37.0313 30.4538 37.2969 30.4017 37.5573 30.2923C37.8125 30.1882 38.0417 30.0371 38.2396 29.8392C38.4323 29.6413 38.5833 29.4121 38.6927 29.1569C38.7969 28.9017 38.8542 28.6309 38.8542 28.3548V24.1517C38.8542 23.8757 38.7969 23.6048 38.6927 23.3496C38.5833 23.0944 38.4323 22.8652 38.2396 22.6673C38.0417 22.4694 37.8125 22.3184 37.5573 22.2142C37.2969 22.1048 37.0313 22.0527 36.75 22.0527H32.5521C32.2708 22.0527 32.0052 22.1048 31.75 22.2142C31.4896 22.3184 31.2656 22.4694 31.0677 22.6673C30.8698 22.8652 30.7187 23.0944 30.6094 23.3496C30.5052 23.6048 30.4531 23.8757 30.4531 24.1517V28.3548C30.4531 28.6309 30.5052 28.9017 30.6094 29.1569C30.7187 29.4121 30.8698 29.6413 31.0677 29.8392C31.2656 30.0371 31.4896 30.1882 31.75 30.2923C32.0052 30.4017 32.2708 30.4538 32.5521 30.4538ZM32.5521 24.1517H36.75V28.3548H32.5521V24.1517Z" fill="white"/>
<path d="M45.1512 30.4538H49.3543C49.6304 30.4538 49.9012 30.4017 50.1564 30.2923C50.4116 30.1882 50.6408 30.0371 50.8387 29.8392C51.0366 29.6413 51.1877 29.4121 51.2918 29.1569C51.4012 28.9017 51.4533 28.6309 51.4533 28.3548V24.1517C51.4533 23.8757 51.4012 23.6048 51.2918 23.3496C51.1877 23.0944 51.0366 22.8652 50.8387 22.6673C50.6408 22.4694 50.4116 22.3184 50.1564 22.2142C49.9012 22.1048 49.6304 22.0527 49.3543 22.0527H45.1512C44.8752 22.0527 44.6043 22.1048 44.3491 22.2142C44.0939 22.3184 43.8647 22.4694 43.6668 22.6673C43.4689 22.8652 43.3179 23.0944 43.2137 23.3496C43.1043 23.6048 43.0522 23.8757 43.0522 24.1517V28.3548C43.0522 28.6309 43.1043 28.9017 43.2137 29.1569C43.3179 29.4121 43.4689 29.6413 43.6668 29.8392C43.8647 30.0371 44.0939 30.1882 44.3491 30.2923C44.6043 30.4017 44.8752 30.4538 45.1512 30.4538ZM45.1512 24.1517H49.3543V28.3548H45.1512V24.1517Z" fill="white"/>
<path d="M5.25 39.9014C5.25 40.1826 5.30208 40.4482 5.41146 40.7087C5.51563 40.9639 5.66667 41.193 5.86458 41.391C6.0625 41.5837 6.29167 41.7399 6.54688 41.8441C6.80208 41.9482 7.07292 42.0055 7.34896 42.0055H11.5521C11.8281 42.0055 12.099 41.9482 12.3542 41.8441C12.6094 41.7399 12.8385 41.5837 13.0365 41.391C13.2344 41.193 13.3854 40.9639 13.4896 40.7087C13.599 40.4482 13.651 40.1826 13.651 39.9014V35.7035C13.651 35.4274 13.599 35.1566 13.4896 34.9014C13.3854 34.641 13.2344 34.417 13.0365 34.2191C12.8385 34.0212 12.6094 33.8701 12.3542 33.7607C12.099 33.6566 11.8281 33.6045 11.5521 33.6045H7.34896C7.07292 33.6045 6.80208 33.6566 6.54688 33.766C6.29167 33.8701 6.0625 34.0212 5.86458 34.2191C5.66667 34.417 5.51563 34.641 5.41146 34.9014C5.30208 35.1566 5.25 35.4274 5.25 35.7035V39.9014ZM7.34896 35.7035H11.5521V39.9014H7.34896V35.7035Z" fill="white"/>
<path d="M17.8491 39.3802C17.8491 39.6562 17.9064 39.9271 18.0106 40.1823C18.12 40.4375 18.271 40.6667 18.4637 40.8646C18.6616 41.0625 18.8908 41.2135 19.146 41.3177C19.4064 41.4271 19.672 41.4792 19.9533 41.4792H24.1512C24.4325 41.4792 24.6981 41.4271 24.9533 41.3177C25.2137 41.2135 25.4377 41.0625 25.6356 40.8646C25.8335 40.6667 25.9845 40.4375 26.0939 40.1823C26.1981 39.9271 26.2502 39.6562 26.2502 39.3802V35.1771C26.2502 34.901 26.1981 34.6302 26.0939 34.375C25.9845 34.1198 25.8335 33.8906 25.6356 33.6927C25.4377 33.4948 25.2137 33.3438 24.9533 33.2396C24.6981 33.1302 24.4325 33.0781 24.1512 33.0781H19.9533C19.672 33.0781 19.4064 33.1302 19.146 33.2396C18.8908 33.3438 18.6616 33.4948 18.4637 33.6927C18.271 33.8906 18.12 34.1198 18.0106 34.375C17.9064 34.6302 17.8491 34.901 17.8491 35.1771V39.3802ZM19.9533 35.1771H24.1512V39.3802H19.9533V35.1771Z" fill="white"/>
<path d="M30.4531 39.3802C30.4531 39.6562 30.5052 39.9271 30.6094 40.1823C30.7187 40.4375 30.8698 40.6667 31.0677 40.8646C31.2656 41.0625 31.4896 41.2135 31.75 41.3177C32.0052 41.4271 32.2708 41.4792 32.5521 41.4792H36.75C37.0313 41.4792 37.2969 41.4271 37.5573 41.3177C37.8125 41.2135 38.0417 41.0625 38.2396 40.8646C38.4323 40.6667 38.5833 40.4375 38.6927 40.1823C38.7969 39.9271 38.8542 39.6562 38.8542 39.3802V35.1771C38.8542 34.901 38.7969 34.6302 38.6927 34.375C38.5833 34.1198 38.4323 33.8906 38.2396 33.6927C38.0417 33.4948 37.8125 33.3438 37.5573 33.2396C37.2969 33.1302 37.0313 33.0781 36.75 33.0781H32.5521C32.2708 33.0781 32.0052 33.1302 31.75 33.2396C31.4896 33.3438 31.2656 33.4948 31.0677 33.6927C30.8698 33.8906 30.7187 34.1198 30.6094 34.375C30.5052 34.6302 30.4531 34.901 30.4531 35.1771V39.3802ZM32.5521 35.1771H36.75V39.3802H32.5521V35.1771Z" fill="white"/>
<path d="M43.0522 39.3802C43.0522 39.6562 43.1043 39.9271 43.2137 40.1823C43.3179 40.4375 43.4689 40.6667 43.6668 40.8646C43.8647 41.0625 44.0939 41.2135 44.3491 41.3177C44.6043 41.4271 44.8752 41.4792 45.1512 41.4792H49.3543C49.6304 41.4792 49.9012 41.4271 50.1564 41.3177C50.4116 41.2135 50.6408 41.0625 50.8387 40.8646C51.0366 40.6667 51.1877 40.4375 51.2918 40.1823C51.4012 39.9271 51.4533 39.6562 51.4533 39.3802V35.1771C51.4533 34.901 51.4012 34.6302 51.2918 34.375C51.1877 34.1198 51.0366 33.8906 50.8387 33.6927C50.6408 33.4948 50.4116 33.3438 50.1564 33.2396C49.9012 33.1302 49.6304 33.0781 49.3543 33.0781H45.1512C44.8752 33.0781 44.6043 33.1302 44.3491 33.2396C44.0939 33.3438 43.8647 33.4948 43.6668 33.6927C43.4689 33.8906 43.3179 34.1198 43.2137 34.375C43.1043 34.6302 43.0522 34.901 43.0522 35.1771V39.3802ZM45.1512 35.1771H49.3543V39.3802H45.1512V35.1771Z" fill="white"/>
<path d="M5.25 50.4066C5.25 50.6826 5.30208 50.9482 5.41146 51.2087C5.51563 51.4639 5.66667 51.693 5.86458 51.891C6.0625 52.0889 6.29167 52.2399 6.54688 52.3441C6.80208 52.4535 7.07292 52.5055 7.34896 52.5055H11.5521C11.8281 52.5055 12.099 52.4535 12.3542 52.3441C12.6094 52.2399 12.8385 52.0889 13.0365 51.891C13.2344 51.693 13.3854 51.4639 13.4896 51.2087C13.599 50.9482 13.651 50.6826 13.651 50.4066V46.2035C13.651 45.9274 13.599 45.6566 13.4896 45.4014C13.3854 45.141 13.2344 44.917 13.0365 44.7191C12.8385 44.5212 12.6094 44.3701 12.3542 44.266C12.099 44.1566 11.8281 44.1045 11.5521 44.1045H7.34896C7.07292 44.1045 6.80208 44.1566 6.54688 44.266C6.29167 44.3701 6.0625 44.5212 5.86458 44.7191C5.66667 44.917 5.51563 45.141 5.41146 45.4014C5.30208 45.6566 5.25 45.9274 5.25 46.2035V50.4066ZM7.34896 46.2035H11.5521V50.4066H7.34896V46.2035Z" fill="white"/>
<path d="M17.8491 50.4066C17.8491 50.6826 17.9064 50.9482 18.0106 51.2087C18.12 51.4639 18.271 51.693 18.4637 51.891C18.6616 52.0889 18.8908 52.2399 19.146 52.3441C19.4064 52.4535 19.672 52.5055 19.9533 52.5055H24.1512C24.4325 52.5055 24.6981 52.4535 24.9533 52.3441C25.2137 52.2399 25.4377 52.0889 25.6356 51.891C25.8335 51.693 25.9845 51.4639 26.0939 51.2087C26.1981 50.9482 26.2502 50.6826 26.2502 50.4066V46.2035C26.2502 45.9274 26.1981 45.6566 26.0939 45.4014C25.9845 45.141 25.8335 44.917 25.6356 44.7191C25.4377 44.5212 25.2137 44.3701 24.9533 44.266C24.6981 44.1566 24.4325 44.1045 24.1512 44.1045H19.9533C19.672 44.1045 19.4064 44.1566 19.146 44.266C18.8908 44.3701 18.6616 44.5212 18.4637 44.7191C18.271 44.917 18.12 45.141 18.0106 45.4014C17.9064 45.6566 17.8491 45.9274 17.8491 46.2035V50.4066ZM19.9533 46.2035H24.1512V50.4066H19.9533V46.2035Z" fill="white"/>
<path d="M30.4531 50.4066C30.4531 50.6826 30.5052 50.9482 30.6094 51.2087C30.7187 51.4639 30.8698 51.693 31.0677 51.891C31.2656 52.0889 31.4896 52.2399 31.75 52.3441C32.0052 52.4535 32.2708 52.5055 32.5521 52.5055H36.75C37.0313 52.5055 37.2969 52.4535 37.5573 52.3441C37.8125 52.2399 38.0417 52.0889 38.2396 51.891C38.4323 51.693 38.5833 51.4639 38.6927 51.2087C38.7969 50.9482 38.8542 50.6826 38.8542 50.4066V46.2035C38.8542 45.9274 38.7969 45.6566 38.6927 45.4014C38.5833 45.141 38.4323 44.917 38.2396 44.7191C38.0417 44.5212 37.8125 44.3701 37.5573 44.266C37.2969 44.1566 37.0313 44.1045 36.75 44.1045H32.5521C32.2708 44.1045 32.0052 44.1566 31.75 44.266C31.4896 44.3701 31.2656 44.5212 31.0677 44.7191C30.8698 44.917 30.7187 45.141 30.6094 45.4014C30.5052 45.6566 30.4531 45.9274 30.4531 46.2035V50.4066ZM32.5521 46.2035H36.75V50.4066H32.5521V46.2035Z" fill="white"/>
<mask id="mask0_149_2010" style="mask-type:luminance" maskUnits="userSpaceOnUse" x="0" y="0" width="57" height="63">
<path d="M0 0H57V63H0V0Z" fill="white"/>
</mask>
<g mask="url(#mask0_149_2010)">
<path d="M51.4531 4.20313H48.3021V3.67708C48.3021 3.1875 48.2083 2.71875 48.0208 2.27083C47.8385 1.81771 47.5729 1.42188 47.224 1.07813C46.8802 0.734374 46.4844 0.46875 46.0365 0.28125C45.5833 0.09375 45.1146 0 44.625 0C44.1406 0 43.6719 0.09375 43.2188 0.28125C42.7708 0.46875 42.375 0.734374 42.0313 1.07813C41.6823 1.42188 41.4167 1.81771 41.2344 2.27083C41.0469 2.71875 40.9531 3.1875 40.9531 3.67708V4.20313H32.026V3.67708C32.026 3.1875 31.9323 2.71875 31.7448 2.27083C31.5625 1.81771 31.2969 1.42188 30.9479 1.07813C30.6042 0.734374 30.2083 0.46875 29.7604 0.28125C29.3073 0.09375 28.8385 0 28.349 0C27.8646 0 27.3958 0.09375 26.9427 0.28125C26.4948 0.46875 26.099 0.734374 25.7552 1.07813C25.4063 1.42188 25.1406 1.81771 24.9583 2.27083C24.7708 2.71875 24.6771 3.1875 24.6771 3.67708V4.20313H15.75V3.67708C15.75 3.1875 15.6563 2.71875 15.4688 2.27083C15.2865 1.81771 15.0208 1.42188 14.6719 1.07813C14.3281 0.734374 13.9323 0.46875 13.4844 0.28125C13.0313 0.09375 12.5625 0 12.0781 0C11.5885 0 11.1198 0.09375 10.6667 0.28125C10.2187 0.46875 9.82292 0.734374 9.47917 1.07813C9.13021 1.42188 8.86458 1.81771 8.68229 2.27083C8.49479 2.71875 8.40104 3.1875 8.40104 3.67708V4.20313H5.25C4.55208 4.20313 3.88542 4.33854 3.23958 4.60417C2.59896 4.86979 2.03125 5.25 1.54167 5.73958C1.04687 6.23437 0.666667 6.80208 0.401042 7.44271C0.135416 8.08854 0 8.75521 0 9.45313V42.0052C0 42.2917 0.104166 42.5417 0.307292 42.7448C0.510416 42.9531 0.760417 43.0521 1.05208 43.0521C1.33854 43.0521 1.58854 42.9531 1.79167 42.7448C2 42.5417 2.09896 42.2917 2.09896 42.0052V18.901H54.6042V44.1042C54.6042 44.3958 54.5 44.6406 54.2969 44.8438C54.0885 45.0521 53.8438 45.1563 53.5521 45.1563H48.3021C47.6042 45.1563 46.9375 45.2865 46.2969 45.5573C45.651 45.8229 45.0833 46.2031 44.5938 46.6927C44.099 47.1875 43.7188 47.7552 43.4531 48.3958C43.1875 49.0365 43.0521 49.7083 43.0521 50.4063V55.6563C43.0521 55.9427 42.9479 56.1927 42.7448 56.3958C42.5417 56.6042 42.2917 56.7031 42 56.7031L5.25 56.6406C4.83333 56.6406 4.43229 56.5625 4.04688 56.401C3.65625 56.2396 3.31771 56.0104 3.02083 55.7188C2.72917 55.4219 2.5 55.0833 2.33854 54.6979C2.18229 54.3073 2.09896 53.9063 2.09896 53.4896V50.4063C2.09896 50.1146 2 49.8646 1.79167 49.6615C1.58854 49.4583 1.33854 49.3542 1.05208 49.3542C0.760417 49.3542 0.510416 49.4583 0.307292 49.6615C0.104166 49.8646 0 50.1146 0 50.4063V57.7552C0 58.4479 0.135416 59.1198 0.401042 59.7604C0.666667 60.4063 1.04687 60.974 1.54167 61.4635C2.03125 61.9583 2.59896 62.3385 3.23958 62.6042C3.88542 62.8698 4.55208 63.0052 5.25 63.0052H51.4531C52.151 63.0052 52.8177 62.8698 53.4635 62.6042C54.1042 62.3385 54.6719 61.9583 55.1615 61.4635C55.6563 60.974 56.0365 60.4063 56.3021 59.7604C56.5677 59.1198 56.7031 58.4479 56.7031 57.7552V9.45313C56.7031 8.75521 56.5677 8.08854 56.3021 7.44271C56.0365 6.80208 55.6563 6.23437 55.1615 5.73958C54.6719 5.25 54.1042 4.86979 53.4635 4.60417C52.8177 4.33854 52.151 4.20313 51.4531 4.20313ZM43.0521 3.67708C43.0521 3.46875 43.0938 3.26562 43.1719 3.07292C43.25 2.88021 43.3646 2.70833 43.5156 2.5625C43.6615 2.41667 43.8333 2.30208 44.026 2.21875C44.2188 2.14062 44.4167 2.09896 44.625 2.09896C44.8385 2.09896 45.0365 2.14062 45.2292 2.21875C45.4219 2.30208 45.5938 2.41667 45.7396 2.5625C45.8906 2.70833 46.0052 2.88021 46.0833 3.07292C46.1615 3.26562 46.2031 3.46875 46.2031 3.67708V7.875C46.2031 8.08333 46.1615 8.28646 46.0833 8.47917C46.0052 8.67188 45.8906 8.84375 45.7396 8.98958C45.5938 9.14062 45.4219 9.25 45.2292 9.33333C45.0365 9.41146 44.8385 9.45313 44.625 9.45313C44.4167 9.45313 44.2188 9.41146 44.026 9.33333C43.8333 9.25 43.6615 9.14062 43.5156 8.98958C43.3646 8.84375 43.25 8.67188 43.1719 8.47917C43.0938 8.28646 43.0521 8.08333 43.0521 7.875V3.67708ZM26.776 3.67708C26.776 3.46875 26.8177 3.26562 26.8958 3.07292C26.974 2.88021 27.0885 2.70833 27.2396 2.5625C27.3854 2.41667 27.5573 2.30208 27.75 2.21875C27.9427 2.14062 28.1406 2.09896 28.349 2.09896C28.5625 2.09896 28.7604 2.14062 28.9531 2.21875C29.1458 2.30208 29.3177 2.41667 29.4635 2.5625C29.6146 2.70833 29.7292 2.88021 29.8073 3.07292C29.8854 3.26562 29.9271 3.46875 29.9271 3.67708V7.875C29.9271 8.08333 29.8854 8.28646 29.8073 8.47917C29.7292 8.67188 29.6146 8.84375 29.4635 8.98958C29.3177 9.14062 29.1458 9.25 28.9531 9.33333C28.7604 9.41146 28.5625 9.45313 28.349 9.45313C28.1406 9.45313 27.9427 9.41146 27.75 9.33333C27.5573 9.25 27.3854 9.14062 27.2396 8.98958C27.0885 8.84375 26.974 8.67188 26.8958 8.47917C26.8177 8.28646 26.776 8.08333 26.776 7.875V3.67708ZM10.5 3.67708C10.5 3.46875 10.5417 3.26562 10.6198 3.07292C10.6979 2.88021 10.8125 2.70833 10.9635 2.5625C11.1094 2.41667 11.2813 2.30208 11.474 2.21875C11.6667 2.14062 11.8646 2.09896 12.0781 2.09896C12.2865 2.09896 12.4844 2.14062 12.6771 2.21875C12.8698 2.30208 13.0417 2.41667 13.1875 2.5625C13.3385 2.70833 13.4531 2.88021 13.5313 3.07292C13.6094 3.26562 13.651 3.46875 13.651 3.67708V7.875C13.651 8.08333 13.6094 8.28646 13.5313 8.47917C13.4531 8.67188 13.3385 8.84375 13.1875 8.98958C13.0417 9.14062 12.8698 9.25 12.6771 9.33333C12.4844 9.41146 12.2865 9.45313 12.0781 9.45313C11.8646 9.45313 11.6667 9.41146 11.474 9.33333C11.2813 9.25 11.1094 9.14062 10.9635 8.98958C10.8125 8.84375 10.6979 8.67188 10.6198 8.47917C10.5417 8.28646 10.5 8.08333 10.5 7.875V3.67708ZM2.09896 16.8021V9.45313C2.09896 9.03646 2.18229 8.63021 2.33854 8.24479C2.5 7.85937 2.72917 7.52083 3.02083 7.22396C3.31771 6.92708 3.65625 6.70313 4.04688 6.54167C4.43229 6.38021 4.83333 6.30208 5.25 6.30208H8.40104V7.875C8.40104 8.36458 8.49479 8.83333 8.68229 9.28125C8.86458 9.73437 9.13021 10.1302 9.47917 10.474C9.82292 10.8177 10.2187 11.0833 10.6667 11.2708C11.1198 11.4583 11.5885 11.5521 12.0781 11.5521C12.5625 11.5521 13.0313 11.4583 13.4844 11.2708C13.9323 11.0833 14.3281 10.8177 14.6719 10.474C15.0208 10.1302 15.2865 9.73437 15.4688 9.28125C15.6563 8.83333 15.75 8.36458 15.75 7.875V6.30208H24.6771V7.875C24.6771 8.36458 24.7708 8.83333 24.9583 9.28125C25.1406 9.73437 25.4063 10.1302 25.7552 10.474C26.099 10.8177 26.4948 11.0833 26.9427 11.2708C27.3958 11.4583 27.8646 11.5521 28.349 11.5521C28.8385 11.5521 29.3073 11.4583 29.7604 11.2708C30.2083 11.0833 30.6042 10.8177 30.9479 10.474C31.2969 10.1302 31.5625 9.73437 31.7448 9.28125C31.9323 8.83333 32.026 8.36458 32.026 7.875V6.30208H40.9531V7.875C40.9531 8.36458 41.0469 8.83333 41.2344 9.28125C41.4167 9.73437 41.6823 10.1302 42.0313 10.474C42.375 10.8177 42.7708 11.0833 43.2188 11.2708C43.6719 11.4583 44.1406 11.5521 44.625 11.5521C45.1146 11.5521 45.5833 11.4583 46.0365 11.2708C46.4844 11.0833 46.8802 10.8177 47.224 10.474C47.5729 10.1302 47.8385 9.73437 48.0208 9.28125C48.2083 8.83333 48.3021 8.36458 48.3021 7.875V6.30208H51.4531C51.8698 6.30208 52.2708 6.38021 52.6563 6.54167C53.0469 6.70313 53.3854 6.92708 53.6823 7.22396C53.974 7.52083 54.2031 7.85937 54.3646 8.24479C54.5208 8.63021 54.6042 9.03646 54.6042 9.45313V16.8021H2.09896ZM45.151 50.4063C45.151 49.9844 45.2344 49.5833 45.3906 49.1979C45.5521 48.8125 45.7813 48.474 46.0729 48.1771C46.3698 47.8802 46.7135 47.651 47.099 47.4948C47.4844 47.3333 47.8854 47.2552 48.3021 47.2552H53.1198L45.151 55.224V50.4063ZM51.4531 60.9063H5.25C4.82292 60.9063 4.41667 60.8177 4.02604 60.6563C3.63021 60.4896 3.28646 60.25 2.98958 59.9479C2.69792 59.6406 2.46875 59.2917 2.31771 58.8958C2.16146 58.5 2.08854 58.0885 2.09896 57.6615C3.02604 58.375 4.07292 58.7344 5.23958 58.7396L42.349 58.8021C43.8073 58.8021 45.0469 58.2917 46.0781 57.2656L54.6042 48.7396V57.7552C54.6042 58.1719 54.5208 58.5729 54.3646 58.9583C54.2031 59.3438 53.974 59.6875 53.6823 59.9844C53.3854 60.276 53.0469 60.5052 52.6563 60.6667C52.2708 60.8229 51.8698 60.9063 51.4531 60.9063Z" fill="white"/>
</g>
<path d="M2.09896 46.8955C2.09896 47.1872 2 47.432 1.79167 47.6403C1.58854 47.8434 1.33854 47.9476 1.05208 47.9476C0.760417 47.9476 0.510416 47.8434 0.307292 47.6403C0.104166 47.432 0 47.1872 0 46.8955C0 46.6038 0.104166 46.359 0.307292 46.1559C0.510416 45.9476 0.760417 45.8486 1.05208 45.8486C1.33854 45.8486 1.58854 45.9476 1.79167 46.1559C2 46.359 2.09896 46.6038 2.09896 46.8955Z" fill="white"/>
</svg>
