<svg width="30" height="18" viewBox="0 0 30 18" fill="none" xmlns="http://www.w3.org/2000/svg">
<path fill-rule="evenodd" clip-rule="evenodd" d="M0 2C0 0.89543 0.895416 0 2 0H28C29.1046 0 30 0.89543 30 2C30 3.10457 29.1046 4 28 4H2C0.895416 4 0 3.10457 0 2ZM0 9C0 7.89543 0.895416 7 2 7H28C29.1046 7 30 7.89543 30 9C30 10.1046 29.1046 11 28 11H2C0.895416 11 0 10.1046 0 9ZM2 14C0.895416 14 0 14.8954 0 16C0 17.1046 0.895416 18 2 18H28C29.1046 18 30 17.1046 30 16C30 14.8954 29.1046 14 28 14H2Z" fill="#D9D9D9"/>
</svg>
