<svg width="47" height="75" viewBox="0 0 47 75" fill="none" xmlns="http://www.w3.org/2000/svg">
<path d="M23.5785 10.8724C18.2424 10.8724 13.8999 14.9472 13.8999 19.9594C13.8999 24.9666 18.2424 29.0414 23.5785 29.0414C28.9146 29.0414 33.2571 24.9666 33.2571 19.9594C33.2571 14.9472 28.9146 10.8724 23.5785 10.8724ZM23.5785 30.9851C17.0963 30.9851 11.8232 26.0371 11.8232 19.9594C11.8232 13.8767 17.0963 8.92871 23.5785 8.92871C30.0607 8.92871 35.3338 13.8767 35.3338 19.9594C35.3338 26.0371 30.0607 30.9851 23.5785 30.9851Z" fill="white"/>
<mask id="mask0_149_2009" style="mask-type:luminance" maskUnits="userSpaceOnUse" x="0" y="0" width="47" height="66">
<path d="M0 0H47V65.0346H0V0Z" fill="white"/>
</mask>
<g mask="url(#mask0_149_2009)">
<path d="M23.5 2.00782C11.7237 2.00782 2.13971 11.0011 2.13971 22.0515C2.13971 38.8343 19.5781 58.0442 23.5 62.1536C27.4219 58.0442 44.8603 38.8343 44.8603 22.0515C44.8603 11.0011 35.2763 2.00782 23.5 2.00782ZM23.5 64.9113L22.8428 64.4327C22.601 64.2551 16.9126 58.5178 11.3925 50.6691C8.0962 45.9874 5.47282 41.4242 3.58546 37.1126C1.20917 31.6762 0 26.6048 0 22.0515C0 16.1612 2.44463 10.6261 6.88177 6.46251C11.3242 2.29395 17.2228 0 23.5 0C29.7772 0 35.6758 2.29395 40.1182 6.46251C44.5554 10.6261 47 16.1612 47 22.0515C47 26.6048 45.7908 31.6762 43.4145 37.1126C41.5272 41.4242 38.9038 45.9874 35.6075 50.6691C30.0874 58.5178 24.3937 64.2551 24.1572 64.4327L23.5 64.9113Z" fill="white"/>
</g>
<mask id="mask1_149_2009" style="mask-type:luminance" maskUnits="userSpaceOnUse" x="3" y="67" width="41" height="8">
<path d="M3.31738 67.7041H43.8877V75.0003H3.31738V67.7041Z" fill="white"/>
</mask>
<g mask="url(#mask1_149_2009)">
<path d="M37.7684 67.7686C39.1458 68.2717 39.9396 68.8489 39.9396 69.4705C39.9396 71.3501 32.6163 72.8744 23.579 72.8744C14.5418 72.8744 7.21839 71.3501 7.21839 69.4705C7.21839 68.8489 8.00698 68.2717 9.38964 67.7686C5.64647 68.5332 3.32275 69.6037 3.32275 70.7828C3.32275 73.1112 12.3915 75.0007 23.579 75.0007C34.7665 75.0007 43.8353 73.1112 43.8353 70.7828C43.8353 69.6037 41.5116 68.5332 37.7684 67.7686Z" fill="white"/>
</g>
<path d="M30.7028 67.4023C31.3967 67.6539 31.791 67.945 31.791 68.2558C31.791 69.198 28.1162 69.9676 23.5792 69.9676C19.0422 69.9676 15.3673 69.198 15.3673 68.2558C15.3673 67.945 15.7616 67.6539 16.4556 67.4023C14.5787 67.7871 13.4116 68.3249 13.4116 68.9168C13.4116 70.086 17.9644 71.0332 23.5792 71.0332C29.1939 71.0332 33.7467 70.086 33.7467 68.9168C33.7467 68.3249 32.5796 67.7871 30.7028 67.4023Z" fill="white"/>
</svg>
