<svg width="800" height="1063" viewBox="0 0 800 1063" fill="none" xmlns="http://www.w3.org/2000/svg">
<path fill-rule="evenodd" clip-rule="evenodd" d="M757.857 0L568.601 166.164C517.366 142.316 460.238 129 400 129C179.086 129 0 308.086 0 529C0 684.237 88.4312 818.819 217.666 885.121L326.669 630.032H206.669L577.992 188.859L757.857 0ZM605.046 185.482L448.098 502.889H565.24L242.33 889.404L77 1063L258.814 903.37C302.717 919.936 350.3 929 400 929C620.914 929 800 749.914 800 529C800 383.036 721.818 255.333 605.046 185.482Z" fill="#D9D9D9"/>
</svg>
