<svg width="800" height="800" viewBox="0 0 800 800" fill="none" xmlns="http://www.w3.org/2000/svg">
<g clip-path="url(#clip0_87_221)">
<path fill-rule="evenodd" clip-rule="evenodd" d="M765.714 0L565.646 139.41C515.173 123.275 459.082 114.286 400 114.286C179.086 114.286 0 239.96 0 394.987C0 503.926 88.4311 598.37 217.666 644.897L326.669 465.887H206.668L582.752 152.323L582.857 152.381L765.714 0ZM605.046 153.922L448.098 376.664H565.24L237.848 651.667C237.884 651.679 237.921 651.69 237.958 651.701L59.9998 800L262.742 658.727C305.55 669.701 351.778 675.689 400 675.689C620.914 675.689 800 550.015 800 394.987C800 292.557 721.818 202.94 605.046 153.922Z" fill="#D9D9D9"/>
</g>
<defs>
<clipPath id="clip0_87_221">
<rect width="800" height="800" fill="white"/>
</clipPath>
</defs>
</svg>
