<svg width="248" height="181" viewBox="0 0 248 181" fill="none" xmlns="http://www.w3.org/2000/svg">
<rect y="0.200684" width="248" height="180" fill="#D9D9D9"/>
<path d="M85.1229 76.3636V88H83.7138V76.3636H85.1229ZM87.7663 88V79.2727H89.0618V80.6364H89.1754C89.3572 80.1705 89.6508 79.8087 90.0561 79.5511C90.4614 79.2898 90.9482 79.1591 91.5163 79.1591C92.0921 79.1591 92.5713 79.2898 92.9538 79.5511C93.3402 79.8087 93.6413 80.1705 93.8572 80.6364H93.9482C94.1716 80.1856 94.5069 79.8277 94.9538 79.5625C95.4008 79.2936 95.9368 79.1591 96.5618 79.1591C97.3421 79.1591 97.9804 79.4034 98.4766 79.892C98.9728 80.3769 99.2209 81.1326 99.2209 82.1591V88H97.88V82.1591C97.88 81.5152 97.7038 81.0549 97.3516 80.7784C96.9993 80.5019 96.5845 80.3636 96.1072 80.3636C95.4936 80.3636 95.0182 80.5492 94.6811 80.9205C94.344 81.2879 94.1754 81.7538 94.1754 82.3182V88H92.8118V82.0227C92.8118 81.5265 92.6508 81.1269 92.3288 80.8239C92.0069 80.517 91.5921 80.3636 91.0845 80.3636C90.736 80.3636 90.4103 80.4564 90.1072 80.642C89.808 80.8277 89.5656 81.0852 89.38 81.4148C89.1982 81.7405 89.1072 82.1174 89.1072 82.5455V88H87.7663ZM105.195 91.4545C104.548 91.4545 103.991 91.3712 103.525 91.2045C103.059 91.0417 102.671 90.8258 102.36 90.5568C102.053 90.2917 101.809 90.0076 101.627 89.7045L102.695 88.9545C102.817 89.1136 102.97 89.2955 103.156 89.5C103.341 89.7083 103.595 89.8883 103.917 90.0398C104.243 90.1951 104.669 90.2727 105.195 90.2727C105.9 90.2727 106.481 90.1023 106.94 89.7614C107.398 89.4205 107.627 88.8864 107.627 88.1591V86.3864H107.513C107.415 86.5455 107.275 86.7424 107.093 86.9773C106.915 87.2083 106.657 87.4148 106.32 87.5966C105.987 87.7746 105.536 87.8636 104.968 87.8636C104.263 87.8636 103.631 87.697 103.07 87.3636C102.513 87.0303 102.072 86.5455 101.746 85.9091C101.424 85.2727 101.263 84.5 101.263 83.5909C101.263 82.697 101.421 81.9186 101.735 81.2557C102.049 80.589 102.487 80.0739 103.048 79.7102C103.608 79.3428 104.256 79.1591 104.991 79.1591C105.559 79.1591 106.01 79.2538 106.343 79.4432C106.68 79.6288 106.938 79.8409 107.116 80.0795C107.298 80.3144 107.438 80.5076 107.536 80.6591H107.673V79.2727H108.968V88.25C108.968 89 108.798 89.6098 108.457 90.0795C108.12 90.553 107.665 90.8996 107.093 91.1193C106.525 91.3428 105.892 91.4545 105.195 91.4545ZM105.15 86.6591C105.688 86.6591 106.142 86.536 106.513 86.2898C106.885 86.0436 107.167 85.6894 107.36 85.2273C107.553 84.7652 107.65 84.2121 107.65 83.5682C107.65 82.9394 107.555 82.3845 107.366 81.9034C107.176 81.4223 106.896 81.0455 106.525 80.7727C106.154 80.5 105.695 80.3636 105.15 80.3636C104.582 80.3636 104.108 80.5076 103.729 80.7955C103.354 81.0833 103.072 81.4697 102.883 81.9545C102.697 82.4394 102.604 82.9773 102.604 83.5682C102.604 84.1742 102.699 84.7102 102.888 85.1761C103.082 85.6383 103.366 86.0019 103.741 86.267C104.12 86.5284 104.589 86.6591 105.15 86.6591ZM115.923 91.2727V79.2727H117.218V80.6591H117.377C117.476 80.5076 117.612 80.3144 117.786 80.0795C117.964 79.8409 118.218 79.6288 118.548 79.4432C118.881 79.2538 119.332 79.1591 119.9 79.1591C120.635 79.1591 121.282 79.3428 121.843 79.7102C122.404 80.0777 122.841 80.5985 123.156 81.2727C123.47 81.947 123.627 82.7424 123.627 83.6591C123.627 84.5833 123.47 85.3845 123.156 86.0625C122.841 86.7367 122.406 87.2595 121.849 87.6307C121.292 87.9981 120.65 88.1818 119.923 88.1818C119.362 88.1818 118.913 88.089 118.576 87.9034C118.239 87.714 117.979 87.5 117.798 87.2614C117.616 87.0189 117.476 86.8182 117.377 86.6591H117.263V91.2727H115.923ZM117.241 83.6364C117.241 84.2955 117.337 84.8769 117.531 85.3807C117.724 85.8807 118.006 86.2727 118.377 86.5568C118.748 86.8371 119.203 86.9773 119.741 86.9773C120.301 86.9773 120.769 86.8295 121.144 86.5341C121.523 86.2348 121.807 85.8333 121.996 85.3295C122.19 84.822 122.286 84.2576 122.286 83.6364C122.286 83.0227 122.192 82.4697 122.002 81.9773C121.817 81.4811 121.534 81.089 121.156 80.8011C120.781 80.5095 120.309 80.3636 119.741 80.3636C119.195 80.3636 118.737 80.5019 118.366 80.7784C117.995 81.0511 117.714 81.4337 117.525 81.9261C117.335 82.4148 117.241 82.9848 117.241 83.6364ZM125.673 88V79.2727H126.968V80.5909H127.059C127.218 80.1591 127.506 79.8087 127.923 79.5398C128.339 79.2708 128.809 79.1364 129.332 79.1364C129.43 79.1364 129.553 79.1383 129.701 79.142C129.849 79.1458 129.96 79.1515 130.036 79.1591V80.5227C129.991 80.5114 129.887 80.4943 129.724 80.4716C129.565 80.4451 129.396 80.4318 129.218 80.4318C128.794 80.4318 128.415 80.5208 128.082 80.6989C127.752 80.8731 127.491 81.1155 127.298 81.4261C127.108 81.733 127.013 82.0833 127.013 82.4773V88H125.673ZM135.019 88.1818C134.178 88.1818 133.453 87.9962 132.843 87.625C132.237 87.25 131.769 86.7273 131.44 86.0568C131.114 85.3826 130.951 84.5985 130.951 83.7045C130.951 82.8106 131.114 82.0227 131.44 81.3409C131.769 80.6553 132.228 80.1212 132.815 79.7386C133.406 79.3523 134.095 79.1591 134.883 79.1591C135.337 79.1591 135.786 79.2348 136.229 79.3864C136.673 79.5379 137.076 79.7841 137.44 80.125C137.803 80.4621 138.093 80.9091 138.309 81.4659C138.525 82.0227 138.633 82.7083 138.633 83.5227V84.0909H131.906V82.9318H137.269C137.269 82.4394 137.171 82 136.974 81.6136C136.781 81.2273 136.504 80.9223 136.144 80.6989C135.788 80.4754 135.368 80.3636 134.883 80.3636C134.349 80.3636 133.887 80.4962 133.496 80.7614C133.11 81.0227 132.813 81.3636 132.604 81.7841C132.396 82.2045 132.292 82.6553 132.292 83.1364V83.9091C132.292 84.5682 132.406 85.1269 132.633 85.5852C132.864 86.0398 133.184 86.3864 133.593 86.625C134.002 86.8598 134.478 86.9773 135.019 86.9773C135.371 86.9773 135.69 86.928 135.974 86.8295C136.262 86.7273 136.51 86.5758 136.718 86.375C136.926 86.1705 137.087 85.9167 137.201 85.6136L138.496 85.9773C138.36 86.4167 138.131 86.803 137.809 87.1364C137.487 87.4659 137.089 87.7235 136.616 87.9091C136.142 88.0909 135.61 88.1818 135.019 88.1818ZM135.996 78.2273L134.815 76.6364L133.633 78.2273H132.36V78.1364L134.201 75.7727H135.428L137.269 78.1364V78.2273H135.996ZM140.673 88V79.2727H141.968V80.6364H142.082C142.263 80.1705 142.557 79.8087 142.962 79.5511C143.368 79.2898 143.854 79.1591 144.423 79.1591C144.998 79.1591 145.478 79.2898 145.86 79.5511C146.246 79.8087 146.548 80.1705 146.763 80.6364H146.854C147.078 80.1856 147.413 79.8277 147.86 79.5625C148.307 79.2936 148.843 79.1591 149.468 79.1591C150.248 79.1591 150.887 79.4034 151.383 79.892C151.879 80.3769 152.127 81.1326 152.127 82.1591V88H150.786V82.1591C150.786 81.5152 150.61 81.0549 150.258 80.7784C149.906 80.5019 149.491 80.3636 149.013 80.3636C148.4 80.3636 147.924 80.5492 147.587 80.9205C147.25 81.2879 147.082 81.7538 147.082 82.3182V88H145.718V82.0227C145.718 81.5265 145.557 81.1269 145.235 80.8239C144.913 80.517 144.498 80.3636 143.991 80.3636C143.642 80.3636 143.317 80.4564 143.013 80.642C142.714 80.8277 142.472 81.0852 142.286 81.4148C142.104 81.7405 142.013 82.1174 142.013 82.5455V88H140.673ZM154.579 88V79.2727H155.92V88H154.579ZM155.261 77.8182C154.999 77.8182 154.774 77.7292 154.585 77.5511C154.399 77.3731 154.306 77.1591 154.306 76.9091C154.306 76.6591 154.399 76.4451 154.585 76.267C154.774 76.089 154.999 76 155.261 76C155.522 76 155.746 76.089 155.931 76.267C156.121 76.4451 156.215 76.6591 156.215 76.9091C156.215 77.1591 156.121 77.3731 155.931 77.5511C155.746 77.7292 155.522 77.8182 155.261 77.8182ZM161.921 88.1818C161.133 88.1818 160.442 87.9943 159.847 87.6193C159.256 87.2443 158.794 86.7197 158.461 86.0455C158.131 85.3712 157.967 84.5833 157.967 83.6818C157.967 82.7727 158.131 81.9792 158.461 81.3011C158.794 80.6231 159.256 80.0966 159.847 79.7216C160.442 79.3466 161.133 79.1591 161.921 79.1591C162.709 79.1591 163.398 79.3466 163.989 79.7216C164.584 80.0966 165.046 80.6231 165.376 81.3011C165.709 81.9792 165.876 82.7727 165.876 83.6818C165.876 84.5833 165.709 85.3712 165.376 86.0455C165.046 86.7197 164.584 87.2443 163.989 87.6193C163.398 87.9943 162.709 88.1818 161.921 88.1818ZM161.921 86.9773C162.52 86.9773 163.012 86.8239 163.398 86.517C163.785 86.2102 164.071 85.8068 164.256 85.3068C164.442 84.8068 164.535 84.2652 164.535 83.6818C164.535 83.0985 164.442 82.5549 164.256 82.0511C164.071 81.5473 163.785 81.1402 163.398 80.8295C163.012 80.5189 162.52 80.3636 161.921 80.3636C161.323 80.3636 160.83 80.5189 160.444 80.8295C160.058 81.1402 159.772 81.5473 159.586 82.0511C159.4 82.5549 159.308 83.0985 159.308 83.6818C159.308 84.2652 159.4 84.8068 159.586 85.3068C159.772 85.8068 160.058 86.2102 160.444 86.517C160.83 86.8239 161.323 86.9773 161.921 86.9773Z" fill="black"/>
</svg>
