<svg width="114" height="115" viewBox="0 0 114 115" fill="none" xmlns="http://www.w3.org/2000/svg">
<path d="M16.4924 3.35935V6.71872H21.0551H25.6177V24.2323C25.6177 43.2016 25.7068 44.6349 26.8419 48.599C30.0914 60.0208 39.1945 68.5089 50.8348 71.0396C54.0844 71.7339 59.9379 71.7339 63.1207 71.0396C66.0808 70.3901 67.8169 69.8078 70.3542 68.6208C78.5002 64.7464 84.6431 57.4901 87.1359 48.7333C88.2933 44.7021 88.3823 43.1344 88.3823 24.1651V6.71872H92.945H97.5076V3.35935V-3.05176e-05H57H16.4924V3.35935Z" fill="#8A570C"/>
<path d="M0.0667708 26.136L0.155799 38.8568L0.734479 41.0292C1.93635 45.4636 4.11753 49.1365 7.3893 52.2719C10.6388 55.3849 14.3557 57.3782 18.5845 58.2516C20.4541 58.6323 23.6146 58.8339 23.6146 58.5652C23.6146 58.498 23.3475 57.9157 23.0359 57.2886C22.7021 56.6391 22.0566 55.161 21.6115 53.9964L20.7435 51.8912L19.141 51.4881C14.6005 50.3235 10.5943 47.0089 8.45763 42.6641C6.85513 39.3719 6.85513 39.2375 6.74385 29.1594L6.67708 20.1563H12.7977H18.9406V16.7969V13.4375H9.4592H0L0.0667708 26.136Z" fill="#8A570C"/>
<path d="M95.0594 16.7969V20.1563H101.202H107.323L107.256 29.1594C107.145 39.2375 107.145 39.3719 105.542 42.6641C103.406 47.0089 99.3995 50.3235 94.8145 51.4881L93.2343 51.8912L92.4998 53.7948C92.0992 54.8251 91.4537 56.3032 91.0754 57.0646C90.697 57.8261 90.3854 58.498 90.3854 58.5652C90.3854 58.8339 93.5459 58.6323 95.3932 58.2516C99.7111 57.3558 103.45 55.3626 106.677 52.2271C109.927 49.0693 112.064 45.4412 113.266 41.0292L113.844 38.8568L113.933 26.136L114 13.4375H104.541H95.0594V16.7969Z" fill="#8A570C"/>
<path d="M47.207 85.1266V93.1219L43.8239 93.2115C40.0402 93.3011 39.15 93.5475 37.5697 94.9584C35.6334 96.6605 35.1882 98.3626 35.1882 104.185V107.948H30.403H25.6177V111.307V114.667H57H88.3823V111.307V107.948H83.6193H78.8563L78.7673 103.29C78.6337 98.0042 78.4557 97.198 77.009 95.5407C76.5193 94.9808 75.5623 94.2641 74.8501 93.9058C73.6704 93.3235 73.3811 93.2787 70.1984 93.1891L66.7931 93.1219V85.1266V77.1313L64.3003 77.6688C62.0746 78.1615 61.2288 78.2287 57 78.2287C52.7712 78.2287 51.9254 78.1615 49.722 77.6688L47.207 77.1313V85.1266Z" fill="#8A570C"/>
<path d="M46.6307 50.3778C44.4536 50.3778 42.5194 50.0045 40.8281 49.2578C39.1458 48.5021 37.8234 47.4631 36.8608 46.1406C35.8982 44.8182 35.4124 43.2978 35.4034 41.5795H42.9602C42.9692 42.1103 43.1312 42.5871 43.446 43.0099C43.7699 43.4238 44.2107 43.7476 44.7685 43.9815C45.3262 44.2154 45.965 44.3324 46.6847 44.3324C47.3774 44.3324 47.9891 44.2109 48.5199 43.968C49.0507 43.7161 49.4645 43.3698 49.7614 42.929C50.0582 42.4882 50.2022 41.9844 50.1932 41.4176C50.2022 40.8598 50.0313 40.3651 49.6804 39.9332C49.3385 39.5014 48.8572 39.1641 48.2365 38.9212C47.6158 38.6783 46.9006 38.5568 46.0909 38.5568H43.2841V33.375H46.0909C46.8376 33.375 47.4943 33.2536 48.0611 33.0107C48.6368 32.7678 49.0821 32.4304 49.397 31.9986C49.7209 31.5668 49.8783 31.072 49.8693 30.5142C49.8783 29.9744 49.7479 29.4976 49.478 29.0838C49.2081 28.67 48.8303 28.3461 48.3445 28.1122C47.8677 27.8783 47.3144 27.7614 46.6847 27.7614C46.0009 27.7614 45.3892 27.8828 44.8494 28.1257C44.3187 28.3686 43.9003 28.706 43.5945 29.1378C43.2886 29.5696 43.1312 30.0644 43.1222 30.6222H35.9432C35.9522 28.9309 36.4155 27.4375 37.3331 26.142C38.2597 24.8466 39.5282 23.83 41.1385 23.0923C42.7488 22.3546 44.5975 21.9858 46.6847 21.9858C48.7268 21.9858 50.5305 22.3321 52.0959 23.0249C53.6702 23.7176 54.8982 24.6712 55.7798 25.8857C56.6705 27.0911 57.1113 28.4721 57.1023 30.0284C57.1203 31.5758 56.5895 32.8442 55.5099 33.8338C54.4394 34.8234 53.081 35.4081 51.4347 35.5881V35.804C53.6657 36.0469 55.3435 36.7306 56.468 37.8551C57.5926 38.9706 58.1458 40.3741 58.1278 42.0653C58.1368 43.6847 57.651 45.1196 56.6705 46.37C55.6989 47.6205 54.3449 48.6011 52.6087 49.3118C50.8814 50.0225 48.8887 50.3778 46.6307 50.3778ZM62.5574 30.6222V29.2188C62.5574 27.9233 62.8317 26.7763 63.3805 25.7777C63.9383 24.7791 64.7209 23.9964 65.7285 23.4297C66.7451 22.8629 67.9371 22.5795 69.3045 22.5795C71.3826 22.5795 73.0244 23.2003 74.2299 24.4418C75.4444 25.6832 76.0517 27.2756 76.0517 29.2188V30.6222C76.0517 31.8996 75.7818 33.0331 75.242 34.0227C74.7022 35.0123 73.9331 35.7905 72.9345 36.3572C71.9359 36.924 70.7439 37.2074 69.3585 37.2074C67.2534 37.2074 65.5936 36.5911 64.3791 35.3587C63.1646 34.1172 62.5574 32.5384 62.5574 30.6222ZM65.9579 29.2188V30.6222C65.9579 31.7287 66.2413 32.6463 66.8081 33.375C67.3748 34.0947 68.225 34.4545 69.3585 34.4545C70.465 34.4545 71.2882 34.0947 71.8279 33.375C72.3767 32.6463 72.6511 31.7287 72.6511 30.6222V29.2188C72.6511 28.1392 72.3767 27.2216 71.8279 26.4659C71.2792 25.7102 70.438 25.3324 69.3045 25.3324C68.198 25.3324 67.3613 25.7102 66.7946 26.4659C66.2368 27.2216 65.9579 28.1392 65.9579 29.2188Z" fill="black"/>
</svg>
