<svg width="114" height="115" viewBox="0 0 114 115" fill="none" xmlns="http://www.w3.org/2000/svg">
<path d="M16.4924 3.35935V6.71872H21.0551H25.6177V24.2323C25.6177 43.2016 25.7068 44.6349 26.8419 48.599C30.0914 60.0208 39.1945 68.5089 50.8348 71.0396C54.0843 71.7339 59.9379 71.7339 63.1207 71.0396C66.0808 70.3901 67.8169 69.8078 70.3542 68.6208C78.5002 64.7464 84.6431 57.4901 87.1359 48.7333C88.2932 44.7021 88.3823 43.1344 88.3823 24.1651V6.71872H92.9449H97.5076V3.35935V-3.05176e-05H57H16.4924V3.35935Z" fill="#BAB9B3"/>
<path d="M0.0667708 26.136L0.155799 38.8568L0.734479 41.0292C1.93635 45.4636 4.11753 49.1365 7.3893 52.2719C10.6388 55.3849 14.3557 57.3782 18.5845 58.2516C20.4541 58.6323 23.6146 58.8339 23.6146 58.5652C23.6146 58.498 23.3475 57.9157 23.0359 57.2886C22.7021 56.6391 22.0566 55.161 21.6115 53.9964L20.7435 51.8912L19.141 51.4881C14.6005 50.3235 10.5943 47.0089 8.45763 42.6641C6.85513 39.3719 6.85513 39.2375 6.74385 29.1594L6.67708 20.1563H12.7977H18.9406V16.7969V13.4375H9.4592H0L0.0667708 26.136Z" fill="#BAB9B3"/>
<path d="M95.0594 16.7969V20.1563H101.202H107.323L107.256 29.1594C107.145 39.2375 107.145 39.3719 105.542 42.6641C103.406 47.0089 99.3995 50.3235 94.8145 51.4881L93.2343 51.8912L92.4998 53.7948C92.0992 54.8251 91.4537 56.3032 91.0754 57.0646C90.697 57.8261 90.3854 58.498 90.3854 58.5652C90.3854 58.8339 93.5459 58.6323 95.3932 58.2516C99.7111 57.3558 103.45 55.3626 106.677 52.2271C109.927 49.0693 112.064 45.4412 113.266 41.0292L113.844 38.8568L113.933 26.136L114 13.4375H104.541H95.0594V16.7969Z" fill="#BAB9B3"/>
<path d="M47.207 85.1266V93.1219L43.8239 93.2115C40.0402 93.3011 39.15 93.5475 37.5697 94.9584C35.6334 96.6605 35.1882 98.3626 35.1882 104.185V107.948H30.403H25.6177V111.307V114.667H57H88.3823V111.307V107.948H83.6193H78.8563L78.7673 103.29C78.6337 98.0042 78.4557 97.198 77.009 95.5407C76.5193 94.9808 75.5623 94.2641 74.8501 93.9058C73.6704 93.3235 73.3811 93.2787 70.1984 93.1891L66.7931 93.1219V85.1266V77.1313L64.3003 77.6688C62.0746 78.1615 61.2288 78.2287 57 78.2287C52.7712 78.2287 51.9254 78.1615 49.722 77.6688L47.207 77.1313V85.1266Z" fill="#BAB9B3"/>
<path d="M37.8352 50V44.6023L48.1449 36.0739C48.8286 35.5071 49.4134 34.9763 49.8991 34.4815C50.3939 33.9777 50.7718 33.4605 51.0327 32.9297C51.3026 32.3989 51.4375 31.8097 51.4375 31.1619C51.4375 30.4512 51.2846 29.844 50.9787 29.3402C50.6818 28.8364 50.268 28.4496 49.7372 28.1797C49.2064 27.9008 48.5947 27.7614 47.902 27.7614C47.2093 27.7614 46.5975 27.9008 46.0668 28.1797C45.545 28.4586 45.1402 28.8679 44.8523 29.4077C44.5644 29.9474 44.4205 30.6042 44.4205 31.3778H37.2955C37.2955 29.4347 37.7318 27.7614 38.6044 26.358C39.477 24.9545 40.7095 23.875 42.3018 23.1193C43.8942 22.3636 45.7609 21.9858 47.902 21.9858C50.1151 21.9858 52.0313 22.3411 53.6506 23.0518C55.2789 23.7536 56.5339 24.7431 57.4155 26.0206C58.3061 27.2981 58.7514 28.7959 58.7514 30.5142C58.7514 31.5758 58.531 32.6328 58.0902 33.6854C57.6494 34.7289 56.8577 35.8849 55.7152 37.1534C54.5727 38.4219 52.9489 39.9332 50.8438 41.6875L48.2528 43.8466V44.0085H59.0483V50H37.8352ZM63.4812 30.6222V29.2188C63.4812 27.9233 63.7556 26.7763 64.3043 25.7777C64.8621 24.7791 65.6448 23.9964 66.6523 23.4297C67.6689 22.8629 68.8609 22.5795 70.2283 22.5795C72.3065 22.5795 73.9483 23.2003 75.1538 24.4418C76.3683 25.6832 76.9755 27.2756 76.9755 29.2188V30.6222C76.9755 31.8996 76.7056 33.0331 76.1658 34.0227C75.6261 35.0123 74.8569 35.7905 73.8583 36.3572C72.8597 36.924 71.6677 37.2074 70.2823 37.2074C68.1772 37.2074 66.5174 36.5911 65.3029 35.3587C64.0884 34.1172 63.4812 32.5384 63.4812 30.6222ZM66.8817 29.2188V30.6222C66.8817 31.7287 67.1651 32.6463 67.7319 33.375C68.2987 34.0947 69.1488 34.4545 70.2823 34.4545C71.3888 34.4545 72.212 34.0947 72.7518 33.375C73.3005 32.6463 73.5749 31.7287 73.5749 30.6222V29.2188C73.5749 28.1392 73.3005 27.2216 72.7518 26.4659C72.203 25.7102 71.3619 25.3324 70.2283 25.3324C69.1218 25.3324 68.2852 25.7102 67.7184 26.4659C67.1606 27.2216 66.8817 28.1392 66.8817 29.2188Z" fill="black"/>
</svg>
