<svg width="114" height="115" viewBox="0 0 114 115" fill="none" xmlns="http://www.w3.org/2000/svg">
<path d="M16.4924 3.35935V6.71872H21.0551H25.6177V24.2323C25.6177 43.2016 25.7068 44.6349 26.8419 48.599C30.0914 60.0208 39.1945 68.5089 50.8348 71.0396C54.0843 71.7339 59.9379 71.7339 63.1207 71.0396C66.0808 70.3901 67.8169 69.8078 70.3542 68.6208C78.5002 64.7464 84.6431 57.4901 87.1359 48.7333C88.2932 44.7021 88.3823 43.1344 88.3823 24.1651V6.71872H92.9449H97.5076V3.35935V-3.05176e-05H57H16.4924V3.35935Z" fill="#CAB712"/>
<path d="M0.0667708 26.136L0.155799 38.8568L0.734479 41.0292C1.93635 45.4636 4.11753 49.1365 7.3893 52.2719C10.6388 55.3849 14.3557 57.3782 18.5845 58.2516C20.4541 58.6323 23.6146 58.8339 23.6146 58.5652C23.6146 58.498 23.3475 57.9157 23.0359 57.2886C22.7021 56.6391 22.0566 55.161 21.6115 53.9964L20.7435 51.8912L19.141 51.4881C14.6005 50.3235 10.5943 47.0089 8.45763 42.6641C6.85513 39.3719 6.85513 39.2375 6.74385 29.1594L6.67708 20.1563H12.7977H18.9406V16.7969V13.4375H9.4592H0L0.0667708 26.136Z" fill="#CAB712"/>
<path d="M95.0594 16.7969V20.1563H101.202H107.323L107.256 29.1594C107.145 39.2375 107.145 39.3719 105.542 42.6641C103.406 47.0089 99.3995 50.3235 94.8145 51.4881L93.2343 51.8912L92.4998 53.7948C92.0992 54.8251 91.4537 56.3032 91.0754 57.0646C90.697 57.8261 90.3854 58.498 90.3854 58.5652C90.3854 58.8339 93.5459 58.6323 95.3932 58.2516C99.7111 57.3558 103.45 55.3626 106.677 52.2271C109.927 49.0693 112.064 45.4412 113.266 41.0292L113.844 38.8568L113.933 26.136L114 13.4375H104.541H95.0594V16.7969Z" fill="#CAB712"/>
<path d="M47.207 85.1266V93.1219L43.8239 93.2115C40.0402 93.3011 39.15 93.5475 37.5697 94.9584C35.6334 96.6605 35.1882 98.3626 35.1882 104.185V107.948H30.403H25.6177V111.307V114.667H57H88.3823V111.307V107.948H83.6193H78.8563L78.7673 103.29C78.6337 98.0042 78.4557 97.198 77.009 95.5407C76.5193 94.9808 75.5623 94.2641 74.8501 93.9058C73.6704 93.3235 73.3811 93.2787 70.1984 93.1891L66.7931 93.1219V85.1266V77.1313L64.3003 77.6688C62.0746 78.1615 61.2288 78.2287 57 78.2287C52.7712 78.2287 51.9254 78.1615 49.722 77.6688L47.207 77.1313V85.1266Z" fill="#CAB712"/>
<path d="M54.3835 22.3636V50H46.8807V29.2727H46.7188L40.6733 32.8892V26.5199L47.4744 22.3636H54.3835ZM61.1374 30.6222V29.2188C61.1374 27.9233 61.4118 26.7763 61.9606 25.7777C62.5183 24.7791 63.301 23.9964 64.3086 23.4297C65.3252 22.8629 66.5172 22.5795 67.8846 22.5795C69.9627 22.5795 71.6045 23.2003 72.81 24.4418C74.0245 25.6832 74.6317 27.2756 74.6317 29.2188V30.6222C74.6317 31.8996 74.3619 33.0331 73.8221 34.0227C73.2823 35.0123 72.5131 35.7905 71.5146 36.3572C70.516 36.924 69.324 37.2074 67.9386 37.2074C65.8335 37.2074 64.1737 36.5911 62.9592 35.3587C61.7447 34.1172 61.1374 32.5384 61.1374 30.6222ZM64.538 29.2188V30.6222C64.538 31.7287 64.8214 32.6463 65.3881 33.375C65.9549 34.0947 66.805 34.4545 67.9386 34.4545C69.0451 34.4545 69.8683 34.0947 70.408 33.375C70.9568 32.6463 71.2312 31.7287 71.2312 30.6222V29.2188C71.2312 28.1392 70.9568 27.2216 70.408 26.4659C69.8593 25.7102 69.0181 25.3324 67.8846 25.3324C66.7781 25.3324 65.9414 25.7102 65.3746 26.4659C64.8169 27.2216 64.538 28.1392 64.538 29.2188Z" fill="black"/>
</svg>
